<svg width="134" height="125" viewBox="0 0 134 125" fill="none" xmlns="http://www.w3.org/2000/svg">
<path fill-rule="evenodd" clip-rule="evenodd" d="M76.856 82.84C76.6 82.84 76.344 82.7547 76.088 82.584C75.9173 82.4133 75.8746 82.2853 75.96 82.2C76.5573 81.432 77.0266 80.5787 77.368 79.64C77.3848 79.6064 77.4015 79.5728 77.4182 79.539C77.4442 79.4863 77.4701 79.4335 77.4958 79.3804C74.6345 79.3581 71.6425 79.2313 68.52 79H63.72H61.72H57.72V78.04H61.72V48.0329C60.4603 48.027 59.1323 48.024 57.736 48.024H51.592C49.2026 52.888 46.728 57.6667 44.168 62.36C41.608 66.968 38.9626 70.7654 36.232 73.752C34.0986 76.056 31.5386 77.9333 28.552 79.384C25.5653 80.8347 22.5786 81.56 19.592 81.56C16.9466 81.56 14.4293 80.792 12.04 79.256C11.7472 79.0678 11.4635 78.8688 11.1887 78.6588C10.8468 78.4874 10.5066 78.3025 10.168 78.104C7.77863 76.568 5.98663 74.264 4.79196 71.192C4.45063 70.0827 4.19463 68.9307 4.02396 67.736C3.85329 66.456 3.76796 65.2187 3.76796 64.024C3.76796 62.8293 3.98129 62.232 4.40796 62.232C4.83463 62.232 5.04796 62.5733 5.04796 63.256C5.04796 65.0727 5.27557 66.7493 5.73079 68.2859C5.67024 67.219 5.63996 66.1824 5.63996 65.176V63.512C5.63996 62.9147 5.68263 62.36 5.76796 61.848C5.93863 61.336 6.27996 61.08 6.79196 61.08C6.96263 61.08 7.04796 61.1653 7.04796 61.336C7.04796 61.848 7.00529 62.36 6.91996 62.872V64.408C6.91996 68.4187 7.90129 71.448 9.86396 73.496C11.912 75.544 14.4293 76.568 17.416 76.568C20.4026 76.568 23.304 75.7147 26.12 74.008C28.936 72.3013 31.5386 70.1254 33.928 67.48C35.8906 65.3467 37.8106 62.5733 39.688 59.16C41.6506 55.7467 43.656 52.0773 45.704 48.152C42.9733 48.2373 40.1146 48.3653 37.128 48.536C34.1413 48.6213 31.4106 48.8773 28.936 49.304C28.168 49.3893 27.9546 49.176 28.296 48.664C28.6373 48.152 29.2773 47.512 30.216 46.744C31.1546 45.976 32.136 45.2933 33.16 44.696C34.2693 44.0987 35.1653 43.7573 35.848 43.672C37.2986 43.7573 39.0906 43.8427 41.224 43.928C43.4426 43.928 45.6186 43.9707 47.752 44.056C48.8145 42.1242 49.8496 40.1787 50.8575 38.2195C46.2111 34.1422 43.888 28.781 43.888 22.136C43.888 19.1645 44.3637 16.4649 45.3151 14.0371C44.9435 14.1395 44.5771 14.2472 44.216 14.36C41.4853 15.2133 39.5226 16.4933 38.328 18.2C37.6453 19.224 37.304 20.4613 37.304 21.912C37.304 23.448 37.688 24.8987 38.456 26.264C39.224 27.6293 40.2053 28.6107 41.4 29.208L41.656 29.464C41.656 29.72 41.4426 29.976 41.016 30.232C40.6746 30.4027 40.2906 30.4453 39.864 30.36C39.1813 29.9333 38.328 29.2507 37.304 28.312C36.31 27.3181 35.3965 26.2839 34.5633 25.2096C34.8432 26.2641 35.3567 27.0849 36.104 27.672C36.1893 27.7573 36.232 27.8427 36.232 27.928C36.232 28.0987 36.0613 28.2693 35.72 28.44C35.464 28.6107 35.208 28.6533 34.952 28.568C34.184 28.1413 33.2453 27.1173 32.136 25.496C31.0266 23.7893 30.344 22.3813 30.088 21.272C29.832 20.248 29.704 19.3093 29.704 18.456C29.704 16.2373 30.4293 14.5307 31.88 13.336C33.3306 12.056 35.1653 11.16 37.384 10.648C39.6026 10.0507 41.864 9.70935 44.168 9.62401C45.5181 9.524 46.7803 9.4533 47.9546 9.41189C48.6104 8.57327 49.3455 7.77998 50.16 7.03201C54.3413 3.10668 60.6133 1.14401 68.976 1.14401C77.424 1.14401 86 2.59468 94.704 5.49601L94.192 6.77601C86.4266 3.78934 79.088 2.29601 72.176 2.29601C65.3493 2.29601 60.016 3.74668 56.176 6.64801C55.0928 7.46641 54.1624 8.37308 53.3847 9.36801H56.248C58.808 9.28268 61.0266 9.24001 62.904 9.24001H75.403C76.7 9.14631 77.8083 9.01831 78.728 8.85601H79.112C79.1973 8.77068 79.2826 8.72801 79.368 8.72801C79.88 8.72801 80.136 8.89868 80.136 9.24001C80.136 9.58135 79.9653 9.92268 79.624 10.264C79.368 10.52 79.1546 10.648 78.984 10.648C78.6641 10.679 78.3468 10.723 78.0319 10.7802C77.8385 11.0932 77.6181 11.4062 77.3709 11.7192C78.1376 11.7091 78.8993 11.704 79.656 11.704C80.6218 11.704 81.6034 11.7395 82.6008 11.8104C91.5021 11.967 97.7636 13.8869 101.385 17.5704C103.335 14.3977 104.87 12.0903 105.992 10.648C106.049 10.6246 106.106 10.6009 106.164 10.5771C106.202 10.5611 106.241 10.545 106.28 10.5289C108.065 7.49581 109.819 5.18886 111.544 3.60801C112.568 2.66934 113.805 1.94401 115.256 1.43201C116.707 0.834679 118.072 0.536011 119.352 0.536011C120.547 0.536011 121.571 0.834679 122.424 1.43201C123.277 1.94401 123.661 2.79735 123.576 3.99201L123.448 8.60001C123.448 8.68535 123.235 8.77068 122.808 8.85601C122.381 8.94134 122.211 8.94134 122.296 8.85601C122.361 8.01349 122.13 7.36786 121.604 6.91911C121.372 6.93038 121.117 6.93601 120.84 6.93601C119.987 6.93601 119.091 7.10668 118.152 7.44801C117.213 7.70401 116.019 8.60001 114.568 10.136C113.373 11.3307 111.795 13.3787 109.832 16.28C108.534 18.2264 107.155 20.4175 105.694 22.8532C107.443 25.1525 108.876 28.0601 109.992 31.576C111.272 35.608 111.912 40.504 111.912 46.264C111.912 51.7814 111.031 56.7703 109.269 61.2307C109.374 61.0931 109.476 60.9576 109.576 60.824C109.832 60.4827 110.003 60.312 110.088 60.312C110.344 60.312 110.472 60.6107 110.472 61.208C110.472 61.72 110.344 62.1893 110.088 62.616C108.613 64.7123 106.714 67.1265 104.391 69.8587L109.816 79H100.888L98.7083 75.319C98.5357 75.4511 98.3618 75.5815 98.1867 75.7105C97.4425 77.8201 96.3669 79.7593 94.96 81.528C91.9733 85.2827 88.3466 87.8427 84.08 89.208C79.8986 90.488 74.992 91.128 69.36 91.128C58.864 91.128 49.904 88.5253 42.48 83.32L43.12 82.296C45.936 84.5147 49.5626 86.3493 54 87.8C58.5226 89.1654 63.1306 89.848 67.824 89.848C74.736 89.848 80.624 88.2693 85.488 85.112C87.8149 83.5875 89.5948 81.7328 90.8278 79.5481C89.057 80.036 87.1571 80.28 85.128 80.28C83.5864 80.28 82.1608 79.9613 80.851 79.3237C80.6874 79.3319 80.5234 79.3393 80.3589 79.3458C80.0333 79.6101 79.6763 79.9215 79.288 80.28C78.264 81.3894 77.624 82.1573 77.368 82.584C77.1973 82.7547 77.0266 82.84 76.856 82.84ZM80.112 41.336C81.8292 42.0899 83.4745 42.8952 85.0479 43.752C85.9504 43.5496 86.7025 43.3096 87.304 43.032C89.608 38.5947 91.9546 34.2 94.344 29.848C95.3327 28.047 96.2923 26.3264 97.2226 24.6862C96.8703 22.191 96.0736 20.0767 94.8323 18.3434C93.3664 17.066 91.6996 16.0049 89.832 15.16C87.144 13.88 85 13.144 83.4 12.952C82.7244 12.8709 82.0032 12.807 81.2364 12.7602C79.6001 12.7631 77.9266 12.8094 76.2159 12.899C76.028 13.0197 75.8574 13.08 75.704 13.08C74.9483 13.0044 73.8247 13.1296 72.333 13.4555C72.1165 13.6265 71.9015 13.8051 71.688 13.9913V33.292C72.129 34.9864 72.5929 36.7153 73.0798 38.4786C75.4239 39.3544 77.7679 40.3069 80.112 41.336ZM61.72 28.6996C61.0232 30.0089 60.2952 31.3806 59.5361 32.8146C59.7354 32.9259 59.9381 33.0356 60.144 33.144C60.6612 33.4026 61.1865 33.6585 61.72 33.9117V28.6996ZM53.512 44.312C54.0191 43.3294 54.5439 42.3174 55.0864 41.2759C56.9136 42.4365 58.8516 43.5339 60.9004 44.568H59.4H57.48C56.456 44.4827 55.1333 44.3973 53.512 44.312ZM77.0712 51.7024C78.7019 52.4639 80.2595 53.2568 81.7439 54.081C81.0989 55.3901 80.4776 56.6564 79.88 57.88C79.7518 58.1556 79.6262 58.4265 79.5033 58.6925C79.0086 57.3382 78.5101 55.958 78.008 54.552C77.6908 53.6005 77.3785 52.6507 77.0712 51.7024ZM85.64 61.208C84.5769 63.6664 83.7983 65.685 83.3043 67.2639C84.1997 65.1071 85.1658 62.6495 86.2028 59.8911C86.0098 60.3361 85.8222 60.7751 85.64 61.208ZM84.348 77.0387C84.7104 77.2673 85.14 77.4383 85.6366 77.5518C87.4177 77.0409 89.0721 76.3716 90.6 75.544C91.2725 75.1797 91.9572 74.7419 92.6543 74.2304C92.8261 73.1734 92.912 72.0646 92.912 70.904C92.912 66.376 91.4853 62.5049 88.6321 59.2909C87.6881 61.6748 86.8774 63.6365 86.2 65.176C85.3466 66.968 84.92 68.7173 84.92 70.424V71.192C84.92 71.448 84.9626 71.704 85.048 71.96C85.048 72.3013 85.0906 72.6853 85.176 73.112C85.3466 73.5387 85.4746 73.9653 85.56 74.392V74.648C85.6453 74.7333 85.688 74.8614 85.688 75.032C85.688 75.7147 85.3466 76.312 84.664 76.824C84.5599 76.8969 84.4546 76.9684 84.348 77.0387ZM77.9362 78.4202C78.0612 78.1318 78.1817 77.8389 78.2978 77.5415C78.2704 77.5159 78.2432 77.49 78.216 77.464C76.3386 75.5014 75.4 73.1547 75.4 70.424C75.4 69.0587 75.656 67.6933 76.168 66.328L76.1932 66.2637C75.5426 63.6419 74.8248 60.9753 74.04 58.264C73.2862 55.536 72.5022 52.8079 71.688 50.0799V78.04H74.808V78.4018C75.4232 78.4166 76.0792 78.424 76.776 78.424C77.1829 78.424 77.5697 78.4228 77.9362 78.4202ZM100.837 63.8705C102.908 58.9499 103.944 52.8251 103.944 45.496C103.944 42.3558 103.743 39.4422 103.342 36.7554C102.92 37.7503 102.422 38.7118 101.848 39.64C100.166 42.3603 97.5483 44.3734 93.9938 45.6794C93.5358 46.8189 93.0895 47.9349 92.6548 49.0275C94.2454 50.6324 95.6111 52.5486 96.752 54.776C97.5953 56.3824 98.2402 58.2061 98.6867 60.2471L100.837 63.8705ZM61.72 16.8253V12.76H57.72V12.427C56.283 12.4904 54.811 12.5801 53.304 12.696C52.6609 12.7455 52.0291 12.8061 51.4083 12.8779C50.7467 14.6208 50.416 16.5548 50.416 18.68C50.416 22.8226 51.85 26.3425 54.7181 29.2397C55.2678 27.9065 55.8204 26.5733 56.376 25.24C57.65 22.0124 59.4314 19.2075 61.72 16.8253ZM18.2719 123.896C18.3359 123.939 18.3999 123.96 18.4639 123.96C18.5066 123.96 18.5492 123.939 18.5919 123.896C18.6559 123.789 18.8159 123.597 19.0719 123.32C19.3492 123.064 19.5626 122.904 19.7119 122.84C19.9679 122.733 20.2026 122.605 20.4159 122.456C20.5866 122.328 20.6719 122.179 20.6719 122.008C20.6719 121.965 20.6612 121.933 20.6399 121.912V121.848C20.6186 121.741 20.5866 121.635 20.5439 121.528C20.5226 121.421 20.5119 121.325 20.5119 121.24C20.4906 121.176 20.4799 121.112 20.4799 121.048V120.856C20.4799 120.429 20.5866 119.992 20.7999 119.544C21.0346 119.011 21.3332 118.275 21.6959 117.336C22.0586 116.397 22.4639 115.373 22.9119 114.264C23.3812 113.133 23.8719 112.013 24.3839 110.904C24.8959 109.773 25.4186 108.739 25.9519 107.8C26.4852 106.861 26.9972 106.104 27.4879 105.528C27.9999 104.952 28.4799 104.675 28.9279 104.696C29.0772 104.696 29.2692 104.76 29.5039 104.888C29.7386 104.995 29.8452 105.187 29.8239 105.464C29.8026 105.485 29.8452 105.485 29.9519 105.464C30.0586 105.443 30.1119 105.421 30.1119 105.4L30.1439 104.248C30.1652 103.949 30.0692 103.736 29.8559 103.608C29.6426 103.459 29.3866 103.384 29.0879 103.384C28.7679 103.384 28.4266 103.459 28.0639 103.608C27.7012 103.736 27.3919 103.917 27.1359 104.152C26.6239 104.621 26.1012 105.347 25.5679 106.328C25.0559 107.309 24.5332 108.429 23.9999 109.688C23.4879 110.925 22.9866 112.205 22.4959 113.528C22.0266 114.851 21.5786 116.099 21.1519 117.272C20.7252 118.445 20.3412 119.437 19.9999 120.248C19.5946 119.203 19.1786 118.083 18.7519 116.888C18.3466 115.672 17.9732 114.467 17.6319 113.272C17.2906 112.056 16.9919 110.904 16.7359 109.816C16.5012 108.728 16.3519 107.779 16.2879 106.968C16.4586 106.84 16.7572 106.733 17.1839 106.648C17.6319 106.541 17.9626 106.499 18.1759 106.52C18.2612 106.52 18.3679 106.445 18.4959 106.296C18.6452 106.125 18.7626 105.955 18.8479 105.784C18.9546 105.613 18.9546 105.539 18.8479 105.56H14.9759C14.5066 105.56 13.9519 105.571 13.3119 105.592C12.6719 105.592 11.9999 105.635 11.2959 105.72C10.6132 105.784 9.97323 105.901 9.37589 106.072C8.77856 106.243 8.28789 106.488 7.90389 106.808C7.54123 107.128 7.35989 107.544 7.35989 108.056C7.35989 108.312 7.40256 108.568 7.48789 108.824C7.5519 109.016 7.67989 109.251 7.87189 109.528C8.08523 109.805 8.3199 110.072 8.57589 110.328C8.83189 110.563 9.04523 110.733 9.2159 110.84C9.32256 110.861 9.41856 110.851 9.5039 110.808C9.61056 110.744 9.6639 110.68 9.6639 110.616L9.59989 110.552C9.30123 110.403 9.0559 110.157 8.86389 109.816C8.67189 109.475 8.57589 109.112 8.57589 108.728C8.57589 108.365 8.66123 108.056 8.8319 107.8C9.13056 107.373 9.62123 107.053 10.3039 106.84C10.9866 106.627 11.7439 106.488 12.5759 106.424C13.4079 106.36 14.1972 106.328 14.9439 106.328H16.7039C15.9359 106.477 15.2639 106.851 14.6879 107.448C14.1119 108.045 13.6639 108.749 13.3439 109.56C12.8106 110.84 12.2879 112.12 11.7759 113.4C11.2639 114.68 10.6772 115.917 10.0159 117.112C9.35456 118.307 8.5439 119.437 7.5839 120.504C6.98656 121.144 6.31456 121.645 5.56789 122.008C4.82123 122.371 4.07456 122.552 3.32789 122.552C2.55989 122.552 1.89856 122.221 1.34389 121.56C0.789228 120.899 0.511895 120.067 0.511895 119.064C0.511895 118.893 0.458561 118.808 0.351895 118.808C0.245228 118.808 0.191895 118.957 0.191895 119.256C0.191895 119.555 0.213228 119.864 0.255895 120.184C0.298561 120.483 0.362561 120.771 0.447895 121.048C0.746561 121.816 1.19456 122.392 1.79189 122.776C2.41056 123.139 3.05056 123.32 3.71189 123.32C4.20256 123.32 4.74656 123.224 5.34389 123.032C5.94123 122.861 6.51723 122.627 7.0719 122.328C7.62656 122.008 8.0639 121.645 8.3839 121.24C9.06656 120.429 9.68523 119.533 10.2399 118.552C10.8159 117.549 11.3279 116.536 11.7759 115.512C12.2452 114.467 12.6612 113.464 13.0239 112.504C13.4079 111.523 13.7386 110.669 14.0159 109.944C14.0799 109.752 14.1866 109.453 14.3359 109.048C14.5066 108.643 14.6666 108.387 14.8159 108.28C15.2852 109.752 15.7759 111.309 16.2879 112.952C16.8212 114.573 17.3119 116.195 17.7599 117.816C18.2292 119.437 18.6026 120.995 18.8799 122.488C18.7946 122.723 18.6986 122.947 18.5919 123.16C18.5066 123.395 18.3892 123.608 18.2399 123.8C18.2186 123.821 18.2292 123.853 18.2719 123.896ZM25.0144 122.776C25.6117 123.139 26.2411 123.32 26.9024 123.32C27.6491 123.32 28.4277 123.117 29.2384 122.712C30.0491 122.307 30.7211 121.816 31.2544 121.24C31.9797 120.472 32.6411 119.576 33.2384 118.552C33.8357 117.507 34.3797 116.429 34.8704 115.32C35.3824 114.211 35.8411 113.155 36.2464 112.152C36.6517 111.149 37.0144 110.285 37.3344 109.56L37.4001 109.45C37.4324 109.507 37.4663 109.565 37.5019 109.624C37.7792 110.029 38.0246 110.285 38.2379 110.392C38.2806 110.413 38.3339 110.403 38.3979 110.36C38.4832 110.317 38.5259 110.275 38.5259 110.232C38.5259 110.189 38.5152 110.168 38.4939 110.168C38.1526 109.955 37.9819 109.603 37.9819 109.112C37.9819 108.92 38.0139 108.728 38.0779 108.536C38.1051 108.455 38.1341 108.373 38.1651 108.292C38.5101 107.859 38.8945 107.493 39.3184 107.192C39.4705 107.079 39.6186 106.977 39.7628 106.886C40.2344 106.698 40.7607 106.544 41.3419 106.424C42.0886 106.275 42.8459 106.168 43.6139 106.104C44.4032 106.019 45.1286 105.976 45.7899 105.976C45.9392 105.976 46.0779 105.987 46.2059 106.008H46.5899C46.2272 106.136 45.8539 106.317 45.4699 106.552C45.1072 106.765 44.8512 107.011 44.7019 107.288C44.5099 107.651 44.2219 108.237 43.8379 109.048C43.4539 109.859 43.0166 110.701 42.5259 111.576C42.0139 112.515 41.5019 113.464 40.9899 114.424C40.4779 115.363 39.9766 116.301 39.4859 117.24C39.0806 118.008 38.6539 118.776 38.2059 119.544C37.7792 120.291 37.3419 121.037 36.8939 121.784C36.6806 122.189 36.4032 122.531 36.0619 122.808C35.7206 123.064 35.3152 123.235 34.8459 123.32C34.7606 123.363 34.7606 123.416 34.8459 123.48C34.9312 123.565 35.0486 123.608 35.1979 123.608C35.2832 123.608 35.3472 123.597 35.3899 123.576C35.8166 123.427 36.2006 123.235 36.5419 123C36.8832 122.765 37.1606 122.605 37.3739 122.52C37.5872 122.413 37.8006 122.36 38.0139 122.36C38.2486 122.36 38.4512 122.403 38.6219 122.488C38.7926 122.573 38.9632 122.616 39.1339 122.616C39.1979 122.616 39.2299 122.584 39.2299 122.52C39.2299 122.477 39.2192 122.445 39.1979 122.424C39.1126 122.232 39.1552 121.869 39.3259 121.336C39.5179 120.803 39.7739 120.195 40.0939 119.512C40.4139 118.829 40.7552 118.147 41.1179 117.464C41.4806 116.76 41.8112 116.141 42.1099 115.608C42.4086 115.053 42.6112 114.669 42.7179 114.456C43.1232 113.667 43.5499 112.824 43.9979 111.928C44.4459 111.011 44.9152 110.115 45.4059 109.24C45.8966 108.344 46.4086 107.544 46.9419 106.84C47.1766 106.541 47.5286 106.339 47.9979 106.232C48.4886 106.125 48.9366 106.072 49.3419 106.072H49.6619C49.7686 106.072 49.8646 106.083 49.9499 106.104C50.6326 106.189 51.1552 106.509 51.5179 107.064C51.8806 107.619 52.0619 108.259 52.0619 108.984C52.0619 109.24 52.0406 109.507 51.9979 109.784C51.9766 110.04 51.9126 110.296 51.8059 110.552C51.4646 111.576 51.0486 112.365 50.5579 112.92C50.0672 113.475 49.5019 113.869 48.8619 114.104C48.2432 114.317 47.5286 114.445 46.7179 114.488C45.9286 114.509 45.0326 114.52 44.0299 114.52C43.9232 114.52 43.7846 114.595 43.6139 114.744C43.4646 114.872 43.3366 115.011 43.2299 115.16L43.0699 115.352C43.2192 115.629 43.4326 116.088 43.7099 116.728C44.0086 117.368 44.3926 118.115 44.8619 118.968C45.3312 119.821 45.9072 120.717 46.5899 121.656C47.1446 122.381 47.6886 122.904 48.2219 123.224C48.7766 123.565 49.3206 123.736 49.8539 123.736C50.7499 123.736 51.6459 123.341 52.5419 122.552C53.4379 121.741 54.3766 120.664 55.3579 119.32C55.4859 119.149 55.5499 118.979 55.5499 118.808C55.5499 118.68 55.5179 118.616 55.4539 118.616C55.4112 118.616 55.3579 118.669 55.2939 118.776C54.9952 119.181 54.5899 119.661 54.0779 120.216C53.5872 120.749 53.0326 121.219 52.4139 121.624C51.8166 122.029 51.1766 122.232 50.4939 122.232C50.0672 122.232 49.6299 122.125 49.1819 121.912C48.7339 121.699 48.2966 121.325 47.8699 120.792C47.0592 119.789 46.3659 118.787 45.7899 117.784C45.2352 116.781 44.8192 115.981 44.5419 115.384C45.2246 115.341 45.9712 115.256 46.7819 115.128C47.6139 115 48.4139 114.808 49.1819 114.552C49.9499 114.275 50.6112 113.944 51.1659 113.56C51.5072 113.325 51.8059 113.08 52.0619 112.824C52.3179 112.568 52.5526 112.301 52.7659 112.024C53.3846 111.235 53.6939 110.253 53.6939 109.08C53.6939 108.312 53.5126 107.629 53.1499 107.032C52.8726 106.584 52.4779 106.253 51.9659 106.04C51.4539 105.827 50.8886 105.688 50.2699 105.624C49.6512 105.56 49.0539 105.528 48.4779 105.528C48.2219 105.528 47.9766 105.539 47.7419 105.56H47.1019C46.3126 105.56 45.4486 105.571 44.5099 105.592H42.0779C41.6807 105.592 41.2249 105.609 40.7103 105.642L38.5184 105.656C38.1771 105.656 37.7397 105.635 37.2064 105.592C36.6731 105.549 36.1184 105.528 35.5424 105.528C34.9451 105.528 34.3584 105.571 33.7824 105.656C33.2277 105.741 32.7904 105.923 32.4704 106.2C32.1931 106.456 32.0224 106.755 31.9584 107.096C31.9157 107.437 31.9051 107.715 31.9264 107.928C31.9477 108.077 32.0331 108.301 32.1824 108.6C32.3531 108.899 32.5344 109.208 32.7264 109.528C32.9184 109.827 33.0784 110.093 33.2064 110.328L33.5264 110.072C33.5051 110.008 33.4411 109.837 33.3344 109.56C33.2277 109.261 33.1637 109.027 33.1424 108.856C33.0997 108.28 33.2704 107.821 33.6544 107.48C34.0384 107.139 34.5184 106.893 35.0944 106.744C35.6704 106.595 36.2357 106.499 36.7904 106.456C37.1263 106.431 37.4187 106.413 37.6676 106.403C37.5872 106.46 37.5106 106.52 37.4379 106.584C37.0752 106.883 36.8939 107.309 36.8939 107.864C36.8939 108.077 36.9259 108.312 36.9899 108.568C36.9984 108.596 37.0077 108.624 37.0178 108.653C36.8414 108.945 36.6803 109.247 36.5344 109.56C35.9584 110.819 35.3824 112.035 34.8064 113.208C34.2517 114.36 33.6331 115.491 32.9504 116.6C32.2677 117.688 31.4464 118.765 30.4864 119.832C29.8891 120.493 29.2384 121.037 28.5344 121.464C27.8304 121.891 27.1051 122.104 26.3584 122.104C25.6117 122.104 24.9824 121.848 24.4704 121.336C23.9797 120.824 23.7344 120.067 23.7344 119.064C23.7344 118.893 23.6704 118.808 23.5424 118.808C23.4357 118.808 23.3824 118.957 23.3824 119.256C23.3824 119.555 23.4037 119.864 23.4464 120.184C23.4891 120.483 23.5637 120.771 23.6704 121.048C23.9691 121.816 24.4171 122.392 25.0144 122.776ZM54.0959 123.544C54.2026 123.587 54.2772 123.608 54.3199 123.608C54.6399 123.608 54.9706 123.491 55.3119 123.256C55.6532 123.043 56.0052 122.829 56.3679 122.616C56.7306 122.381 57.0932 122.264 57.4559 122.264C57.6266 122.264 57.7866 122.296 57.9359 122.36C58.1066 122.403 58.2666 122.467 58.4159 122.552C59.0772 122.893 59.7812 123.139 60.5279 123.288C61.2959 123.437 62.0426 123.512 62.7679 123.512C67.4612 123.512 71.1092 121.56 73.7119 117.656C74.3306 116.739 74.8426 115.704 75.2479 114.552C75.6746 113.379 75.8879 112.237 75.8879 111.128C75.8879 109.912 75.6426 108.931 75.1519 108.184C74.6826 107.437 74.0532 106.861 73.2639 106.456C72.4746 106.051 71.5892 105.784 70.6079 105.656C69.6479 105.507 68.6666 105.432 67.6639 105.432C66.6186 105.432 65.5626 105.464 64.4959 105.528C63.4292 105.571 62.3626 105.592 61.2959 105.592C60.9119 105.592 60.4212 105.613 59.8239 105.656C59.2479 105.677 58.6719 105.752 58.0959 105.88C57.5199 106.008 57.0292 106.232 56.6239 106.552C56.2399 106.851 56.0479 107.288 56.0479 107.864C56.0479 108.099 56.0799 108.333 56.1439 108.568C56.1866 108.675 56.2826 108.888 56.4319 109.208C56.6026 109.507 56.7839 109.784 56.9759 110.04C57.1679 110.296 57.3279 110.424 57.4559 110.424C57.4986 110.424 57.5519 110.403 57.6159 110.36C57.6799 110.317 57.7119 110.275 57.7119 110.232C57.7119 110.189 57.6159 110.093 57.4239 109.944C57.2319 109.795 57.1359 109.507 57.1359 109.08C57.1359 108.717 57.2426 108.344 57.4559 107.96C57.6906 107.533 58.1172 107.192 58.7359 106.936C59.3759 106.68 60.1012 106.488 60.9119 106.36C61.7226 106.232 62.4906 106.147 63.2159 106.104C63.9626 106.04 64.5492 106.008 64.9759 106.008H65.7439C65.4026 106.115 65.0399 106.285 64.6559 106.52C64.2932 106.733 64.0266 106.989 63.8559 107.288C63.7066 107.523 63.5679 107.768 63.4399 108.024L63.1199 108.792L62.4159 110.2C62.1812 110.669 61.9359 111.128 61.6799 111.576C60.7626 113.283 59.8452 115 58.9279 116.728C58.0106 118.435 57.0506 120.12 56.0479 121.784C55.8559 122.125 55.6212 122.424 55.3439 122.68C55.0879 122.915 54.7786 123.096 54.4159 123.224C54.2757 123.264 54.2013 123.276 54.1927 123.26C54.1972 123.257 54.1969 123.256 54.1919 123.256C54.1919 123.257 54.1922 123.258 54.1927 123.26C54.1783 123.267 54.114 123.287 53.9999 123.32L53.9679 123.352C53.9466 123.373 53.9359 123.395 53.9359 123.416C53.9359 123.48 53.9892 123.523 54.0959 123.544ZM66.8639 122.136C65.4772 122.755 63.9839 123.064 62.3839 123.064C61.9146 123.064 61.4132 123.021 60.8799 122.936C60.3466 122.829 59.8772 122.627 59.4719 122.328C59.2799 122.157 59.0986 121.976 58.9279 121.784C58.7572 121.592 58.6719 121.357 58.6719 121.08C58.6719 120.931 58.6932 120.803 58.7359 120.696C58.7786 120.568 58.8212 120.451 58.8639 120.344L59.3119 119.448C59.4826 119.128 59.6426 118.819 59.7919 118.52C60.4746 117.155 61.1679 115.8 61.8719 114.456C62.3199 113.581 62.7572 112.696 63.1839 111.8C63.6319 110.883 64.1012 109.997 64.5919 109.144C64.8266 108.76 65.0612 108.365 65.2959 107.96C65.5519 107.555 65.8186 107.181 66.0959 106.84C66.3732 106.52 66.7252 106.317 67.1519 106.232C67.5999 106.147 68.0266 106.104 68.4319 106.104C70.0746 106.104 71.3972 106.563 72.3999 107.48C73.4239 108.376 73.9359 109.656 73.9359 111.32C73.9359 112.045 73.8399 112.781 73.6479 113.528C73.4772 114.275 73.2532 114.989 72.9759 115.672C72.3786 117.123 71.5572 118.413 70.5119 119.544C69.4666 120.653 68.2506 121.517 66.8639 122.136ZM79.4391 123.32C80.1431 123.363 80.8365 123.384 81.5191 123.384C82.7351 123.384 83.8445 123.331 84.8471 123.224C85.8498 123.139 86.5751 123.032 87.0231 122.904C87.6418 122.712 88.2605 122.243 88.8791 121.496C89.4197 120.825 89.9766 120.138 90.5497 119.434C90.5355 119.576 90.5284 119.72 90.5284 119.864V120.248C90.5497 120.376 90.5711 120.493 90.5924 120.6C90.8057 121.453 91.2217 122.136 91.8404 122.648C92.4804 123.16 93.2057 123.523 94.0164 123.736C94.8484 123.971 95.6377 124.088 96.3844 124.088C97.1951 124.088 98.0057 123.949 98.8164 123.672C99.6271 123.395 100.374 123.011 101.056 122.52C101.76 122.008 102.315 121.411 102.72 120.728C103.147 120.045 103.36 119.288 103.36 118.456C103.36 117.88 103.254 117.315 103.04 116.76C102.72 115.928 102.272 115.16 101.696 114.456C101.142 113.731 100.576 113.027 100 112.344C99.4244 111.661 98.9764 110.936 98.6564 110.168C98.4857 109.763 98.4004 109.357 98.4004 108.952C98.4004 108.141 98.7097 107.395 99.3284 106.712C99.9471 106.029 100.843 105.688 102.016 105.688C102.592 105.688 103.083 105.773 103.488 105.944C103.894 106.115 104.224 106.317 104.48 106.552C104.758 106.765 104.896 107.021 104.896 107.32C104.918 107.597 104.928 107.853 104.928 108.088C104.928 108.451 104.854 108.856 104.704 109.304C104.555 109.752 104.438 110.061 104.352 110.232C104.395 110.296 104.491 110.307 104.64 110.264C104.811 110.2 104.918 110.157 104.96 110.136C105.003 109.965 105.142 109.656 105.376 109.208C105.611 108.76 105.824 108.397 106.016 108.12C106.187 107.885 106.272 107.555 106.272 107.128C106.272 106.829 106.208 106.584 106.08 106.392C105.632 105.901 105.131 105.549 104.576 105.336C104.022 105.123 103.446 105.016 102.848 105.016C101.974 105.016 101.11 105.229 100.256 105.656C99.4244 106.061 98.7524 106.605 98.2404 107.288C97.7284 108.056 97.4724 108.856 97.4724 109.688C97.4724 110.477 97.6751 111.256 98.0804 112.024C98.5497 112.877 99.0617 113.752 99.6164 114.648C100.192 115.523 100.651 116.419 100.992 117.336C101.248 117.997 101.376 118.659 101.376 119.32C101.376 120.408 101.024 121.325 100.32 122.072C99.6377 122.819 98.6671 123.192 97.4084 123.192C96.4911 123.192 95.5524 122.979 94.5924 122.552C93.6537 122.104 92.9177 121.507 92.3844 120.76C92.1711 120.461 91.9897 120.109 91.8404 119.704C91.7124 119.277 91.6484 118.861 91.6484 118.456C91.6484 118.157 91.6911 117.88 91.7764 117.624C91.8831 117.347 92.0431 117.101 92.2564 116.888C92.3417 116.845 92.3417 116.781 92.2564 116.696C92.1924 116.589 92.1391 116.536 92.0964 116.536H92.0644C91.6377 116.856 91.2751 117.325 90.9764 117.944C90.8594 118.186 90.7653 118.432 90.6941 118.681C90.6731 118.686 90.6441 118.707 90.6071 118.744C89.8178 119.747 88.8898 120.547 87.8231 121.144C86.7778 121.72 85.6471 122.136 84.4311 122.392C83.2365 122.627 82.0205 122.744 80.7831 122.744C79.8871 122.723 79.1298 122.595 78.5111 122.36C77.8925 122.104 77.5831 121.645 77.5831 120.984C77.5831 120.6 77.6791 120.152 77.8711 119.64C78.0631 119.107 78.2765 118.595 78.5111 118.104C78.7671 117.592 78.9805 117.176 79.1511 116.856C79.3858 116.429 79.5778 116.056 79.7271 115.736C79.8978 115.416 80.0898 115.064 80.3031 114.68C80.3885 114.531 80.5378 114.445 80.7511 114.424C81.0285 114.403 81.2845 114.392 81.5191 114.392H82.1911C83.0658 114.392 83.8551 114.413 84.5591 114.456C85.2845 114.499 86.1698 114.52 87.2151 114.52C87.5565 114.52 87.8551 114.403 88.1111 114.168C88.3885 113.912 88.5805 113.667 88.6871 113.432C88.8151 113.176 88.8151 113.048 88.6871 113.048C88.6658 113.048 88.6018 113.08 88.4951 113.144C88.3245 113.229 88.0685 113.304 87.7271 113.368C87.4071 113.432 87.0871 113.475 86.7671 113.496C86.4685 113.517 86.2445 113.539 86.0951 113.56C85.4338 113.581 84.6658 113.581 83.7911 113.56C82.9378 113.539 82.1378 113.528 81.3911 113.528C81.1991 113.528 81.1031 113.464 81.1031 113.336C81.1031 113.272 81.1138 113.219 81.1351 113.176C81.7325 112.152 82.3511 111.075 82.9911 109.944C83.6525 108.792 84.3351 107.725 85.0391 106.744C85.3378 106.36 85.9138 106.136 86.7671 106.072C87.0658 106.051 87.3538 106.04 87.6311 106.04C87.9298 106.019 88.2178 106.008 88.4951 106.008C89.2631 106.008 89.8285 106.061 90.1911 106.168C90.5751 106.296 90.8311 106.52 90.9591 106.84C91.1085 107.139 91.1831 107.48 91.1831 107.864C91.1831 108.291 91.1298 108.717 91.0231 109.144C90.9805 109.336 91.0551 109.4 91.2471 109.336C91.4391 109.251 91.5778 109.123 91.6631 108.952C91.8551 108.589 92.0578 108.195 92.2712 107.768C92.5058 107.32 92.6231 106.925 92.6231 106.584C92.6231 106.307 92.5165 106.072 92.3031 105.88C92.1111 105.688 91.7485 105.581 91.2151 105.56C90.7458 105.517 90.2658 105.496 89.7751 105.496H88.3351C87.2258 105.496 86.1058 105.517 84.9751 105.56C83.8445 105.581 82.7138 105.592 81.5831 105.592C81.1351 105.592 80.6231 105.613 80.0471 105.656C79.4711 105.677 78.9058 105.763 78.3511 105.912C77.7965 106.04 77.3378 106.264 76.9751 106.584C76.6125 106.883 76.4311 107.309 76.4311 107.864C76.4311 108.077 76.4631 108.312 76.5271 108.568C76.5911 108.845 76.7618 109.197 77.0391 109.624C77.3165 110.029 77.5511 110.285 77.7431 110.392C77.8071 110.413 77.8711 110.403 77.9351 110.36C78.0205 110.317 78.0631 110.275 78.0631 110.232C78.0631 110.189 78.0525 110.168 78.0311 110.168C77.6898 109.955 77.5191 109.603 77.5191 109.112C77.5191 108.92 77.5511 108.728 77.6151 108.536C77.6791 108.344 77.7538 108.152 77.8391 107.96C78.0738 107.533 78.4685 107.203 79.0231 106.968C79.5991 106.712 80.2391 106.531 80.9431 106.424C81.6685 106.296 82.3725 106.211 83.0551 106.168C83.7591 106.125 84.3351 106.093 84.7831 106.072C84.3991 106.157 84.0258 106.36 83.6631 106.68C83.3005 106.979 83.0231 107.277 82.8311 107.576C82.4258 108.216 82.0205 108.888 81.6151 109.592C81.2098 110.296 80.8791 110.883 80.6231 111.352C79.7911 112.824 78.9485 114.296 78.0951 115.768C77.2418 117.219 76.4098 118.68 75.5991 120.152C75.2578 120.749 75.0871 121.261 75.0871 121.688C75.0871 122.541 75.8445 123.032 77.3591 123.16C78.0418 123.245 78.7351 123.299 79.4391 123.32ZM105.51 123.064C106.107 123.448 106.737 123.64 107.398 123.64C108.145 123.64 108.891 123.459 109.638 123.096C110.385 122.733 111.025 122.264 111.558 121.688C112.241 120.941 112.902 119.992 113.542 118.84C114.182 117.667 114.801 116.472 115.398 115.256H116.934C118.257 115.256 119.334 115.267 120.166 115.288C121.019 115.288 121.777 115.32 122.438 115.384C122.694 115.405 122.961 115.341 123.238 115.192C123.515 115.043 123.761 114.872 123.974 114.68C123.419 115.789 122.918 116.803 122.47 117.72C122.043 118.637 121.734 119.341 121.542 119.832C121.414 120.173 121.35 120.515 121.35 120.856C121.35 121.539 121.585 122.125 122.054 122.616C122.545 123.085 123.121 123.32 123.782 123.32C124.657 123.32 125.435 123.139 126.118 122.776C126.993 122.285 127.761 121.667 128.422 120.92C129.083 120.152 129.617 119.48 130.022 118.904C130.086 118.797 130.118 118.68 130.118 118.552C130.118 118.403 130.086 118.328 130.022 118.328C130.001 118.328 129.958 118.371 129.894 118.456C129.51 118.968 129.009 119.597 128.39 120.344C127.771 121.069 127.078 121.645 126.31 122.072C126.033 122.221 125.713 122.36 125.35 122.488C125.009 122.616 124.667 122.68 124.326 122.68C123.857 122.68 123.537 122.552 123.366 122.296C123.195 122.04 123.11 121.741 123.11 121.4C123.11 121.229 123.121 121.059 123.142 120.888C123.185 120.696 123.217 120.525 123.238 120.376C123.345 119.949 123.569 119.341 123.91 118.552C124.251 117.741 124.667 116.845 125.158 115.864C125.649 114.861 126.171 113.837 126.726 112.792C127.302 111.747 127.867 110.755 128.422 109.816C128.977 108.856 129.489 108.024 129.958 107.32C130.449 106.595 130.843 106.083 131.142 105.784C131.505 105.4 131.803 105.176 132.038 105.112C132.273 105.027 132.497 104.984 132.71 104.984C133.137 104.984 133.35 104.931 133.35 104.824C133.35 104.76 133.286 104.696 133.158 104.632C133.051 104.568 132.945 104.536 132.838 104.536C132.475 104.536 132.059 104.621 131.59 104.792C131.142 104.963 130.683 105.155 130.214 105.368C129.766 105.581 129.361 105.763 128.998 105.912C128.699 106.296 128.283 106.925 127.75 107.8C127.238 108.653 126.683 109.624 126.086 110.712C125.489 111.8 124.902 112.899 124.326 114.008C124.049 114.136 123.643 114.232 123.11 114.296C122.598 114.36 122.246 114.392 122.054 114.392H117.35H116.87C116.614 114.371 116.283 114.349 115.878 114.328C116.219 113.667 116.593 112.952 116.998 112.184C117.403 111.416 117.777 110.712 118.118 110.072C118.459 109.432 118.694 108.995 118.822 108.76C119.291 107.949 119.814 107.288 120.39 106.776C120.966 106.264 121.585 105.976 122.246 105.912C122.289 105.912 122.342 105.88 122.406 105.816C122.491 105.731 122.534 105.645 122.534 105.56C122.534 105.475 122.47 105.432 122.342 105.432C122.321 105.432 122.299 105.443 122.278 105.464H122.182C121.819 105.528 121.339 105.571 120.742 105.592H118.63H115.078C114.63 105.592 114.118 105.613 113.542 105.656C112.966 105.677 112.401 105.763 111.846 105.912C111.291 106.04 110.833 106.264 110.47 106.584C110.107 106.883 109.926 107.309 109.926 107.864C109.926 108.077 109.958 108.312 110.022 108.568C110.086 108.845 110.257 109.197 110.534 109.624C110.811 110.029 111.046 110.285 111.238 110.392C111.302 110.413 111.366 110.403 111.43 110.36C111.515 110.317 111.558 110.275 111.558 110.232C111.558 110.211 111.547 110.189 111.526 110.168C111.227 109.933 111.078 109.549 111.078 109.016C111.078 108.632 111.163 108.28 111.334 107.96C111.505 107.64 111.782 107.373 112.166 107.16C112.55 106.947 112.987 106.776 113.478 106.648C114.566 106.349 115.707 106.189 116.902 106.168C118.118 106.147 119.291 106.115 120.422 106.072C119.953 106.157 119.494 106.371 119.046 106.712C118.619 107.053 118.225 107.448 117.862 107.896C117.521 108.323 117.243 108.749 117.03 109.176L115.782 111.672C115.355 112.547 114.907 113.411 114.438 114.264C113.905 114.243 113.361 114.232 112.806 114.232C112.273 114.211 111.825 114.189 111.462 114.168C111.291 114.189 111.067 114.275 110.79 114.424C110.534 114.573 110.289 114.744 110.054 114.936C109.819 115.128 109.659 115.288 109.574 115.416C109.489 115.544 109.542 115.597 109.734 115.576C110.353 115.469 111.035 115.405 111.782 115.384C112.529 115.341 113.243 115.309 113.926 115.288C113.414 116.269 112.913 117.187 112.422 118.04C111.953 118.893 111.473 119.587 110.982 120.12C110.385 120.781 109.734 121.325 109.03 121.752C108.326 122.179 107.601 122.392 106.854 122.392C106.107 122.392 105.478 122.136 104.966 121.624C104.475 121.112 104.23 120.355 104.23 119.352V118.968C104.251 118.84 104.262 118.712 104.262 118.584C104.262 118.541 104.241 118.52 104.198 118.52C104.07 118.52 103.985 118.584 103.942 118.712C103.921 118.84 103.91 118.979 103.91 119.128V119.544C103.91 119.843 103.921 120.152 103.942 120.472C103.985 120.792 104.059 121.091 104.166 121.368C104.465 122.115 104.913 122.68 105.51 123.064Z" fill="white"/>
</svg>
